<svg id="eihoQb6IAUn1" xmlns="http://www.w3.org/2000/svg" xmlns:xlink="http://www.w3.org/1999/xlink" viewBox="430 500 70 80" shape-rendering="geometricPrecision" text-rendering="geometricPrecision"><defs><linearGradient id="eihoQb6IAUn15-fill" x1="0.534904" y1="0.947678" x2="0.495875" y2="0.045182" spreadMethod="pad" gradientUnits="objectBoundingBox" gradientTransform="translate(0 0)"><stop id="eihoQb6IAUn15-fill-0" offset="0%" stop-color="rgba(247,237,8,0.13)"/><stop id="eihoQb6IAUn15-fill-1" offset="48.6157%" stop-color="rgba(247,237,8,0.37)"/><stop id="eihoQb6IAUn15-fill-2" offset="100%" stop-color="rgba(247,237,8,0.92)"/></linearGradient><linearGradient id="eihoQb6IAUn36-fill" x1="0.534904" y1="0.947678" x2="0.495875" y2="0.045182" spreadMethod="pad" gradientUnits="objectBoundingBox" gradientTransform="translate(0 0)"><stop id="eihoQb6IAUn36-fill-0" offset="0%" stop-color="rgba(247,237,8,0.13)"/><stop id="eihoQb6IAUn36-fill-1" offset="48.6157%" stop-color="rgba(247,237,8,0.37)"/><stop id="eihoQb6IAUn36-fill-2" offset="100%" stop-color="rgba(247,237,8,0.92)"/></linearGradient><linearGradient id="eihoQb6IAUn57-fill" x1="0.534904" y1="0.947678" x2="0.495875" y2="0.045182" spreadMethod="pad" gradientUnits="objectBoundingBox" gradientTransform="translate(0 0)"><stop id="eihoQb6IAUn57-fill-0" offset="0%" stop-color="rgba(247,237,8,0.13)"/><stop id="eihoQb6IAUn57-fill-1" offset="48.6157%" stop-color="rgba(247,237,8,0.37)"/><stop id="eihoQb6IAUn57-fill-2" offset="100%" stop-color="rgba(247,237,8,0.92)"/></linearGradient></defs><g transform="matrix(.833397 0 0 0.832607-185.175954 1.163093)" opacity="0.8"><g transform="matrix(1.312919 0 0 1.396056-281.232984-287.310953)"><ellipse rx="250.625955" ry="76.213741" transform="matrix(.836256 0 0 1 983.450382 375.114503)" fill="#1e62bc" stroke-width="0"/><ellipse rx="192" ry="108" transform="matrix(.093286 0 0 0.140952 912.745414 424.590272)" fill="#6b95ea" stroke-width="0"/><ellipse rx="192" ry="108" transform="matrix(.066501 0 0 0.102123 810.747083 392.78476)" fill="#6b95ea" stroke-width="0"/><ellipse rx="192" ry="108" transform="matrix(.048645 0 0 0.0742 791.890249 364.685525)" fill="#6b95ea" stroke-width="0"/><ellipse rx="192" ry="108" transform="matrix(.048645 0 0 0.0742 1174.169704 374.971071)" fill="#6b95ea" stroke-width="0"/><ellipse rx="192" ry="108" transform="matrix(.066501 0 0 0.102123 1144.170195 400.498919)" fill="#6b95ea" stroke-width="0"/><ellipse rx="192" ry="108" transform="matrix(.079895 0 0 0.114253 857.03204 412.9027)" fill="#6b95ea" stroke-width="0"/><ellipse rx="192" ry="108" transform="matrix(.079895 0 0 0.114253 1102.170883 415.474086)" fill="#6b95ea" stroke-width="0"/><ellipse rx="192" ry="108" transform="matrix(.094561 0 0 0.156427 978.155712 429.656526)" fill="#6b95ea" stroke-width="0"/><ellipse rx="192" ry="108" transform="matrix(.093286 0 0 0.140952 1043.028996 424.590272)" fill="#6b95ea" stroke-width="0"/><path d="M433.490621,219.202c0-65.469218,5.111457-61.615741,7.042508-65.346055s6.725171-18.507531,34.465112-30.03927c2.998229-1.24639,4.160695-1.997956,15.153471-5.649628c3.328589-1.174108,12.183667-3.036712,15.779433-3.751172s5.603054-1.192387,12.261996-1.412134s22.997058,1.165455,32.409591,3.176226s23.055467,7.283962,30.413974,11.936944s13.613166,12.29573,17.386435,18.622828s7.533537,22.401783,7.533537,22.401783l5.036094,48.682239c0,0-18.939579,5.644033-31.326297,7.599799s-38.514005,4.849581-51.935449,5.163153-41.946098-.75809-56.214543-2.250245-38.005862-9.134468-38.005862-9.134468Z" transform="matrix(.954776 0 0 1.358825 487.190436 55.970256)" fill="#d2dbed" stroke="rgba(63,87,135,0)" stroke-width="3.84"/></g><path id="eihoQb6IAUn15" d="M840.440829,431.431816q0,2.605844-184.869018,443.720402c0,0,61.81826,35.402817,115.376744,50.706414s181.995234,34.119821,242.830298,34.855323s159.275967-14.700548,208.335991-27.489342s117.714207-50.129489,117.714207-50.129489L1134.575937,429.063337l-59.359051,15.175925-75.67361,8.766155c-34.394939.455569-65.93924-2.681767-89.281178-5.518443-50.162806-6.096137-69.821269-17.24072-69.821269-16.055158Z" transform="matrix(1.312919 0 0 1.396056-281.300448-289.244805)" opacity="0" fill="url(#eihoQb6IAUn15-fill)" stroke="rgba(63,87,135,0)" stroke-width="3.84"/><g><g id="eihoQb6IAUn17" transform="matrix(.911295 0 0 0.788368 515.943165 539.937965)"><path d="M555.403943,337.744628h5.963731-5.963731Z" transform="translate(3.221492 0.906044)" fill="none" stroke="#3f5787" stroke-width="3.84"/><path d="M561.604268,356.239531c0,0-27.777516-32.759463-26.008481-47.226436s14.180348-33.027891,26.882741-32.406591s23.722966,20.836156,25.178076,33.790936-17.218708,35.109161-26.052336,45.842091Z" transform="translate(.000001 0)" fill="rgba(135,150,236,0.35)" stroke="#3f5787" stroke-width="3.84"/><path d="M544.42722,313.803271c0,0,2.185491,3.405124,4.062252,3.630098s6.309455-3.370805,6.309455-3.370805-3.481049-5.07375-5.618009-5.012991-4.753698,4.753698-4.753698,4.753698Z" transform="matrix(1.381741 0.71491-.57846 1.118019-28.149642-432.552211)" fill="none" stroke="#3f5787" stroke-width="3.84"/><path d="M554.294029,351.993014l-.838007,15.363457-36.313628,44.135022-22.866721,8.015379c0,0-2.164825,3.154035-1.939831,4.46161s2.715763,2.909746,2.715763,2.909746l20.950169-8.729237-20.174237,13.190847c0,0-1.231784,3.672669-.581949,4.849576s3.685678,1.745848,3.685678,1.745848q.193983,0,19.204322-15.712627l-17.264492,19.204322c0,0,.4091,4.362759,1.745848,5.043558s4.46161-1.357881,4.46161-1.357881L521.4333,425.908312l-1.357882,13.38483c0,0-.302784,3.892704,3.297712,2.52178s4.073644-21.144153,4.073644-21.144153l29.772123-41.844937-4.707391,91.045783-32.448413,86.985425c0,0-16.665696,2.810059-19.424649,7.399866s-1.293939,11.832448,1.849967,14.799732s13.874749.924983,13.874749.924983l16.649699-10.174817l35.149363-90.64836l13.874749,86.948425c0,0,9.370105,9.07427,16.381682,10.528302s12.728187,3.366267,16.874936-.196992s5.46607-5.882904,2.304242-11.532778-16.788032-6.857328-16.788032-6.857328l-17.117215-87.773802c-3.671493-41.137852-7.886004-87.803964-8.429022-94.574003l30.839807,47.207783l2.181336,19.878022q.665322,4.29924,4.414468,2.767572t.21986-22.645594c3.044226,9.809891,6.98842,22.844,8.574545,27.042797q3.526478,2.360631,3.526478,2.580491t3.069326-4.119512l-8.794405-25.283916l12.094639,22.090182c0,0,2.878741,2.064911,4.39396,1.386875s.854383-3.929479.854383-3.929479L625.890781,421.80875l13.798539,17.168402c0,0,3.215438.791667,4.638068.115576s.122055-5.085213.122055-5.085213q-18.918441-18.949052-18.918441-18.491668c0,.457385-19.007821-14.93469-48.229311-50.870732c0,0-.307805-9.234126-.439721-13.191609" transform="matrix(.860357 0 0 0.908607 75.280747 24.953616)" fill="rgba(135,150,236,0.27)" stroke="#3f5787" stroke-width="3.84"/><path d="M544.42722,313.803271c0,0,2.185491,3.405124,4.062252,3.630098s6.309455-3.370805,6.309455-3.370805-3.481049-5.07375-5.618009-5.012991-4.753698,4.753698-4.753698,4.753698Z" transform="matrix(-1.279852 0.884468 0.715656 1.035576 1051.300386-500.613145)" fill="none" stroke="#3f5787" stroke-width="3.84"/></g></g></g><g transform="matrix(.833397 0 0 0.832607 429.680034 4.801294)" opacity="0.8"><g transform="matrix(1.312919 0 0 1.396056-281.232984-287.310953)"><ellipse rx="250.625955" ry="76.213741" transform="matrix(.836256 0 0 1 983.450382 375.114503)" fill="#1e62bc" stroke-width="0"/><ellipse rx="192" ry="108" transform="matrix(.093286 0 0 0.140952 912.745414 424.590272)" fill="#6b95ea" stroke-width="0"/><ellipse rx="192" ry="108" transform="matrix(.066501 0 0 0.102123 810.747083 392.78476)" fill="#6b95ea" stroke-width="0"/><ellipse rx="192" ry="108" transform="matrix(.048645 0 0 0.0742 791.890249 364.685525)" fill="#6b95ea" stroke-width="0"/><ellipse rx="192" ry="108" transform="matrix(.048645 0 0 0.0742 1174.169704 374.971071)" fill="#6b95ea" stroke-width="0"/><ellipse rx="192" ry="108" transform="matrix(.066501 0 0 0.102123 1144.170195 400.498919)" fill="#6b95ea" stroke-width="0"/><ellipse rx="192" ry="108" transform="matrix(.079895 0 0 0.114253 857.03204 412.9027)" fill="#6b95ea" stroke-width="0"/><ellipse rx="192" ry="108" transform="matrix(.079895 0 0 0.114253 1102.170883 415.474086)" fill="#6b95ea" stroke-width="0"/><ellipse rx="192" ry="108" transform="matrix(.094561 0 0 0.156427 978.155712 429.656526)" fill="#6b95ea" stroke-width="0"/><ellipse rx="192" ry="108" transform="matrix(.093286 0 0 0.140952 1043.028996 424.590272)" fill="#6b95ea" stroke-width="0"/><path d="M433.490621,219.202c0-65.469218,5.111457-61.615741,7.042508-65.346055s6.725171-18.507531,34.465112-30.03927c2.998229-1.24639,4.160695-1.997956,15.153471-5.649628c3.328589-1.174108,12.183667-3.036712,15.779433-3.751172s5.603054-1.192387,12.261996-1.412134s22.997058,1.165455,32.409591,3.176226s23.055467,7.283962,30.413974,11.936944s13.613166,12.29573,17.386435,18.622828s7.533537,22.401783,7.533537,22.401783l5.036094,48.682239c0,0-18.939579,5.644033-31.326297,7.599799s-38.514005,4.849581-51.935449,5.163153-41.946098-.75809-56.214543-2.250245-38.005862-9.134468-38.005862-9.134468Z" transform="matrix(.954776 0 0 1.358825 487.190436 55.970256)" fill="#d2dbed" stroke="rgba(63,87,135,0)" stroke-width="3.84"/></g><path id="eihoQb6IAUn36" d="M840.440829,431.431816q0,2.605844-184.869018,443.720402c0,0,61.81826,35.402817,115.376744,50.706414s181.995234,34.119821,242.830298,34.855323s159.275967-14.700548,208.335991-27.489342s117.714207-50.129489,117.714207-50.129489L1134.575937,429.063337l-59.359051,15.175925-75.67361,8.766155c-34.394939.455569-65.93924-2.681767-89.281178-5.518443-50.162806-6.096137-69.821269-17.24072-69.821269-16.055158Z" transform="matrix(1.312919 0 0 1.396056-281.300448-289.244805)" opacity="0" fill="url(#eihoQb6IAUn36-fill)" stroke="rgba(63,87,135,0)" stroke-width="3.84"/><g><g id="eihoQb6IAUn38" transform="matrix(.911295 0 0 0.788368 515.943165 539.937965)"><path d="M555.403943,337.744628h5.963731-5.963731Z" transform="translate(3.221492 0.906044)" fill="none" stroke="#3f5787" stroke-width="3.84"/><path d="M561.604268,356.239531c0,0-27.777516-32.759463-26.008481-47.226436s14.180348-33.027891,26.882741-32.406591s23.722966,20.836156,25.178076,33.790936-17.218708,35.109161-26.052336,45.842091Z" transform="translate(.000001 0)" fill="rgba(135,150,236,0.35)" stroke="#3f5787" stroke-width="3.84"/><path d="M544.42722,313.803271c0,0,2.185491,3.405124,4.062252,3.630098s6.309455-3.370805,6.309455-3.370805-3.481049-5.07375-5.618009-5.012991-4.753698,4.753698-4.753698,4.753698Z" transform="matrix(1.381741 0.71491-.57846 1.118019-28.149642-432.552211)" fill="none" stroke="#3f5787" stroke-width="3.84"/><path d="M554.294029,351.993014l-.838007,15.363457-36.313628,44.135022-22.866721,8.015379c0,0-2.164825,3.154035-1.939831,4.46161s2.715763,2.909746,2.715763,2.909746l20.950169-8.729237-20.174237,13.190847c0,0-1.231784,3.672669-.581949,4.849576s3.685678,1.745848,3.685678,1.745848q.193983,0,19.204322-15.712627l-17.264492,19.204322c0,0,.4091,4.362759,1.745848,5.043558s4.46161-1.357881,4.46161-1.357881L521.4333,425.908312l-1.357882,13.38483c0,0-.302784,3.892704,3.297712,2.52178s4.073644-21.144153,4.073644-21.144153l29.772123-41.844937-4.707391,91.045783-32.448413,86.985425c0,0-16.665696,2.810059-19.424649,7.399866s-1.293939,11.832448,1.849967,14.799732s13.874749.924983,13.874749.924983l16.649699-10.174817l35.149363-90.64836l13.874749,86.948425c0,0,9.370105,9.07427,16.381682,10.528302s12.728187,3.366267,16.874936-.196992s5.46607-5.882904,2.304242-11.532778-16.788032-6.857328-16.788032-6.857328l-17.117215-87.773802c-3.671493-41.137852-7.886004-87.803964-8.429022-94.574003l30.839807,47.207783l2.181336,19.878022q.665322,4.29924,4.414468,2.767572t.21986-22.645594c3.044226,9.809891,6.98842,22.844,8.574545,27.042797q3.526478,2.360631,3.526478,2.580491t3.069326-4.119512l-8.794405-25.283916l12.094639,22.090182c0,0,2.878741,2.064911,4.39396,1.386875s.854383-3.929479.854383-3.929479L625.890781,421.80875l13.798539,17.168402c0,0,3.215438.791667,4.638068.115576s.122055-5.085213.122055-5.085213q-18.918441-18.949052-18.918441-18.491668c0,.457385-19.007821-14.93469-48.229311-50.870732c0,0-.307805-9.234126-.439721-13.191609" transform="matrix(.860357 0 0 0.908607 75.280747 24.953616)" fill="rgba(135,150,236,0.27)" stroke="#3f5787" stroke-width="3.84"/><path d="M544.42722,313.803271c0,0,2.185491,3.405124,4.062252,3.630098s6.309455-3.370805,6.309455-3.370805-3.481049-5.07375-5.618009-5.012991-4.753698,4.753698-4.753698,4.753698Z" transform="matrix(-1.279852 0.884468 0.715656 1.035576 1051.300386-500.613145)" fill="none" stroke="#3f5787" stroke-width="3.84"/></g></g></g><g transform="translate(-30.924709 25.467408)"><g transform="matrix(1.312919 0 0 1.396056-281.232984-287.310953)"><ellipse rx="250.625955" ry="76.213741" transform="matrix(.836256 0 0 1 983.450382 375.114503)" fill="#1e62bc" stroke-width="0"/><ellipse rx="192" ry="108" transform="matrix(.093286 0 0 0.140952 912.745414 424.590272)" fill="#6b95ea" stroke-width="0"/><ellipse rx="192" ry="108" transform="matrix(.066501 0 0 0.102123 810.747083 392.78476)" fill="#6b95ea" stroke-width="0"/><ellipse rx="192" ry="108" transform="matrix(.048645 0 0 0.0742 791.890249 364.685525)" fill="#6b95ea" stroke-width="0"/><ellipse rx="192" ry="108" transform="matrix(.048645 0 0 0.0742 1174.169704 374.971071)" fill="#6b95ea" stroke-width="0"/><ellipse rx="192" ry="108" transform="matrix(.066501 0 0 0.102123 1144.170195 400.498919)" fill="#6b95ea" stroke-width="0"/><ellipse rx="192" ry="108" transform="matrix(.079895 0 0 0.114253 857.03204 412.9027)" fill="#6b95ea" stroke-width="0"/><ellipse rx="192" ry="108" transform="matrix(.079895 0 0 0.114253 1102.170883 415.474086)" fill="#6b95ea" stroke-width="0"/><ellipse rx="192" ry="108" transform="matrix(.094561 0 0 0.156427 978.155712 429.656526)" fill="#6b95ea" stroke-width="0"/><ellipse rx="192" ry="108" transform="matrix(.093286 0 0 0.140952 1043.028996 424.590272)" fill="#6b95ea" stroke-width="0"/><path d="M433.490621,219.202c0-65.469218,5.111457-61.615741,7.042508-65.346055s6.725171-18.507531,34.465112-30.03927c2.998229-1.24639,4.160695-1.997956,15.153471-5.649628c3.328589-1.174108,12.183667-3.036712,15.779433-3.751172s5.603054-1.192387,12.261996-1.412134s22.997058,1.165455,32.409591,3.176226s23.055467,7.283962,30.413974,11.936944s13.613166,12.29573,17.386435,18.622828s7.533537,22.401783,7.533537,22.401783l5.036094,48.682239c0,0-18.939579,5.644033-31.326297,7.599799s-38.514005,4.849581-51.935449,5.163153-41.946098-.75809-56.214543-2.250245-38.005862-9.134468-38.005862-9.134468Z" transform="matrix(.954776 0 0 1.358825 487.190436 55.970256)" fill="#d2dbed" stroke="rgba(63,87,135,0)" stroke-width="3.84"/></g><path id="eihoQb6IAUn57" d="M840.440829,431.431816q0,2.605844-184.869018,443.720402c0,0,61.81826,35.402817,115.376744,50.706414s181.995234,34.119821,242.830298,34.855323s159.275967-14.700548,208.335991-27.489342s117.714207-50.129489,117.714207-50.129489L1134.575937,429.063337l-59.359051,15.175925-75.67361,8.766155c-34.394939.455569-65.93924-2.681767-89.281178-5.518443-50.162806-6.096137-69.821269-17.24072-69.821269-16.055158Z" transform="matrix(1.312919 0 0 1.396056-281.300448-289.244805)" opacity="0" fill="url(#eihoQb6IAUn57-fill)" stroke="rgba(63,87,135,0)" stroke-width="3.84"/><g><g id="eihoQb6IAUn59" transform="matrix(.911295 0 0 0.788368 515.943165 539.937965)"><path d="M555.403943,337.744628h5.963731-5.963731Z" transform="translate(3.221492 0.906044)" fill="none" stroke="#3f5787" stroke-width="3.84"/><path d="M561.604268,356.239531c0,0-27.777516-32.759463-26.008481-47.226436s14.180348-33.027891,26.882741-32.406591s23.722966,20.836156,25.178076,33.790936-17.218708,35.109161-26.052336,45.842091Z" transform="translate(.000001 0)" fill="rgba(135,150,236,0.35)" stroke="#3f5787" stroke-width="3.84"/><path d="M544.42722,313.803271c0,0,2.185491,3.405124,4.062252,3.630098s6.309455-3.370805,6.309455-3.370805-3.481049-5.07375-5.618009-5.012991-4.753698,4.753698-4.753698,4.753698Z" transform="matrix(1.381741 0.71491-.57846 1.118019-28.149642-432.552211)" fill="none" stroke="#3f5787" stroke-width="3.84"/><path d="M554.294029,351.993014l-.838007,15.363457-36.313628,44.135022-22.866721,8.015379c0,0-2.164825,3.154035-1.939831,4.46161s2.715763,2.909746,2.715763,2.909746l20.950169-8.729237-20.174237,13.190847c0,0-1.231784,3.672669-.581949,4.849576s3.685678,1.745848,3.685678,1.745848q.193983,0,19.204322-15.712627l-17.264492,19.204322c0,0,.4091,4.362759,1.745848,5.043558s4.46161-1.357881,4.46161-1.357881L521.4333,425.908312l-1.357882,13.38483c0,0-.302784,3.892704,3.297712,2.52178s4.073644-21.144153,4.073644-21.144153l29.772123-41.844937-4.707391,91.045783-32.448413,86.985425c0,0-16.665696,2.810059-19.424649,7.399866s-1.293939,11.832448,1.849967,14.799732s13.874749.924983,13.874749.924983l16.649699-10.174817l35.149363-90.64836l13.874749,86.948425c0,0,9.370105,9.07427,16.381682,10.528302s12.728187,3.366267,16.874936-.196992s5.46607-5.882904,2.304242-11.532778-16.788032-6.857328-16.788032-6.857328l-17.117215-87.773802c-3.671493-41.137852-7.886004-87.803964-8.429022-94.574003l30.839807,47.207783l2.181336,19.878022q.665322,4.29924,4.414468,2.767572t.21986-22.645594c3.044226,9.809891,6.98842,22.844,8.574545,27.042797q3.526478,2.360631,3.526478,2.580491t3.069326-4.119512l-8.794405-25.283916l12.094639,22.090182c0,0,2.878741,2.064911,4.39396,1.386875s.854383-3.929479.854383-3.929479L625.890781,421.80875l13.798539,17.168402c0,0,3.215438.791667,4.638068.115576s.122055-5.085213.122055-5.085213q-18.918441-18.949052-18.918441-18.491668c0,.457385-19.007821-14.93469-48.229311-50.870732c0,0-.307805-9.234126-.439721-13.191609" transform="matrix(.860357 0 0 0.908607 75.280747 24.953616)" fill="rgba(135,150,236,0.27)" stroke="#3f5787" stroke-width="3.84"/><path d="M544.42722,313.803271c0,0,2.185491,3.405124,4.062252,3.630098s6.309455-3.370805,6.309455-3.370805-3.481049-5.07375-5.618009-5.012991-4.753698,4.753698-4.753698,4.753698Z" transform="matrix(-1.279852 0.884468 0.715656 1.035576 1051.300386-500.613145)" fill="none" stroke="#3f5787" stroke-width="3.84"/></g></g></g>
</svg>
