<svg id="eyqOYsF7iT41" xmlns="http://www.w3.org/2000/svg" xmlns:xlink="http://www.w3.org/1999/xlink" viewBox="-100 0 700 300" shape-rendering="geometricPrecision" text-rendering="geometricPrecision"><defs><filter id="eyqOYsF7iT42-filter" x="-150%" width="400%" y="-150%" height="400%"><feComponentTransfer id="eyqOYsF7iT42-filter-opacity-0" result="result"><feFuncA id="eyqOYsF7iT42-filter-opacity-0-A" type="table" tableValues="0 1"/></feComponentTransfer><feGaussianBlur id="eyqOYsF7iT42-filter-inner-shadow-0-blur" in="result" stdDeviation="6,0"/><feOffset id="eyqOYsF7iT42-filter-inner-shadow-0-offset" dx="0" dy="0" result="tmp"/><feComposite id="eyqOYsF7iT42-filter-inner-shadow-0-composite" operator="arithmetic" k2="-1" k3="1" in2="SourceGraphic"/><feColorMatrix id="eyqOYsF7iT42-filter-inner-shadow-0-color-matrix" type="matrix" values="0 0 0 0 1 0 0 0 0 1 0 0 0 0 1 0 0 0 1 0"/><feMerge id="eyqOYsF7iT42-filter-inner-shadow-0-merge" result="result"><feMergeNode id="eyqOYsF7iT42-filter-inner-shadow-0-merge-node-1" in="result"/><feMergeNode id="eyqOYsF7iT42-filter-inner-shadow-0-merge-node-2"/></feMerge></filter><linearGradient id="eyqOYsF7iT42-fill" x1="0" y1="0.360059" x2="0.998477" y2="0.360059" spreadMethod="pad" gradientUnits="objectBoundingBox" gradientTransform="translate(0 0)"><stop id="eyqOYsF7iT42-fill-0" offset="0%" stop-color="rgba(2,90,160,0)"/><stop id="eyqOYsF7iT42-fill-1" offset="5.5439%" stop-color="rgba(2,90,160,0.87)"/><stop id="eyqOYsF7iT42-fill-2" offset="49.8052%" stop-color="#025aa0"/><stop id="eyqOYsF7iT42-fill-3" offset="91%" stop-color="rgba(2,90,160,0.91)"/><stop id="eyqOYsF7iT42-fill-4" offset="100%" stop-color="rgba(2,90,160,0)"/></linearGradient><filter id="eyqOYsF7iT433-filter" x="-150%" width="400%" y="-150%" height="400%"><feGaussianBlur id="eyqOYsF7iT433-filter-inner-shadow-0-blur" in="SourceAlpha" stdDeviation="2,3"/><feOffset id="eyqOYsF7iT433-filter-inner-shadow-0-offset" dx="-2" dy="2" result="tmp"/><feComposite id="eyqOYsF7iT433-filter-inner-shadow-0-composite" operator="arithmetic" k2="-1" k3="1" in2="SourceGraphic"/><feColorMatrix id="eyqOYsF7iT433-filter-inner-shadow-0-color-matrix" type="matrix" values="0 0 0 0 0 0 0 0 0 0 0 0 0 0 0 0 0 0 1 0"/><feMerge id="eyqOYsF7iT433-filter-inner-shadow-0-merge" result="result"><feMergeNode id="eyqOYsF7iT433-filter-inner-shadow-0-merge-node-1" in="SourceGraphic"/><feMergeNode id="eyqOYsF7iT433-filter-inner-shadow-0-merge-node-2"/></feMerge></filter><filter id="eyqOYsF7iT435-filter" x="-150%" width="400%" y="-150%" height="400%"><feGaussianBlur id="eyqOYsF7iT435-filter-inner-shadow-0-blur" in="SourceAlpha" stdDeviation="2,3"/><feOffset id="eyqOYsF7iT435-filter-inner-shadow-0-offset" dx="-2" dy="2" result="tmp"/><feComposite id="eyqOYsF7iT435-filter-inner-shadow-0-composite" operator="arithmetic" k2="-1" k3="1" in2="SourceGraphic"/><feColorMatrix id="eyqOYsF7iT435-filter-inner-shadow-0-color-matrix" type="matrix" values="0 0 0 0 0 0 0 0 0 0 0 0 0 0 0 0 0 0 1 0"/><feMerge id="eyqOYsF7iT435-filter-inner-shadow-0-merge" result="result"><feMergeNode id="eyqOYsF7iT435-filter-inner-shadow-0-merge-node-1" in="SourceGraphic"/><feMergeNode id="eyqOYsF7iT435-filter-inner-shadow-0-merge-node-2"/></feMerge></filter></defs><rect width="299.543077" height="60.131379" rx="0" ry="0" transform="matrix(1.669209 0 0 1 0.00013 199.365877)" filter="url(#eyqOYsF7iT42-filter)" fill="url(#eyqOYsF7iT42-fill)"/><g id="eyqOYsF7iT43" transform="translate(-3.683214 1.441537)" opacity="0"><path d="M5.528229,2.542402h58.6613L60.015153,9.055148L-0.531636,9.055143L5.528229,2.542402Z" transform="matrix(.976913 0 0 1.090449 171.037684 214.719275)" fill="#d2dbed" stroke-width="0"/><path d="M5.528229,2.542402h58.6613L60.015153,9.055148L-0.531636,9.055143L5.528229,2.542402Z" transform="matrix(.976913 0 0 1.090449 70.099576 214.668679)" fill="#d2dbed" stroke-width="0"/><path d="M5.528229,2.542402h58.6613L60.015153,9.055148L-0.531636,9.055143L5.528229,2.542402Z" transform="matrix(.976913 0 0 1.090449-29.797423 214.635391)" fill="#d2dbed" stroke-width="0"/><path d="M5.528229,2.542402h58.6613L60.015153,9.055148L-0.531636,9.055143L5.528229,2.542402Z" transform="matrix(.976913 0 0 1.090449 271.071231 214.669837)" fill="#d2dbed" stroke-width="0"/><path d="M5.528229,2.542402h58.6613L60.015153,9.055148L-0.531636,9.055143L5.528229,2.542402Z" transform="matrix(.976913 0 0 1.090449 471.00927 214.635391)" fill="#d2dbed" stroke-width="0"/><path d="M5.528229,2.542402h58.6613L60.015153,9.055148L-0.531636,9.055143L5.528229,2.542402Z" transform="matrix(.976913 0 0 1.090449 571.044385 214.696465)" fill="#d2dbed" stroke-width="0"/><path d="M5.528229,2.542402h58.6613L60.015153,9.055148L-0.531636,9.055143L5.528229,2.542402Z" transform="matrix(.976913 0 0 1.090449 670.999675 214.750148)" fill="#d2dbed" stroke-width="0"/><path d="M5.528229,2.542402h58.6613L60.015153,9.055148L-0.531636,9.055143L5.528229,2.542402Z" transform="matrix(.976913 0 0 1.090449 771.067416 214.818126)" fill="#d2dbed" stroke-width="0"/><path d="M5.528229,2.542402h58.6613L60.015153,9.055148L-0.531636,9.055143L5.528229,2.542402Z" transform="matrix(.976913 0 0 1.090449 870.961412 214.635391)" fill="#d2dbed" stroke-width="0"/><path d="M5.528229,2.542402h58.6613L60.015153,9.055148L-0.531636,9.055143L5.528229,2.542402Z" transform="matrix(.976913 0 0 1.090449 971.183851 214.818126)" fill="#d2dbed" stroke-width="0"/><path d="M5.528229,2.542402h58.6613L60.015153,9.055148L-0.531636,9.055143L5.528229,2.542402Z" transform="matrix(.976913 0 0 1.090449 371.038782 214.670357)" fill="#d2dbed" stroke-width="0"/></g><g mask="url(#eyqOYsF7iT427)"><g id="eyqOYsF7iT416" transform="translate(-3.367176 3.911442)"><path id="eyqOYsF7iT417" d="M5.528229,2.542402h58.6613L60.015153,9.055148L-0.531636,9.055143L5.528229,2.542402Z" transform="matrix(.976913 0 0 1.090449 151.886538 214.719275)" fill="#d2dbed" stroke-width="0"/><path id="eyqOYsF7iT418" d="M5.528229,2.542402h58.6613L60.015153,9.055148L-0.531636,9.055143L5.528229,2.542402Z" transform="matrix(.976913 0 0 1.090449 60.886538 214.668679)" fill="#d2dbed" stroke-width="0"/><path id="eyqOYsF7iT419" d="M5.528229,2.542402h58.6613L60.015153,9.055148L-0.531636,9.055143L5.528229,2.542402Z" transform="matrix(.976913 0 0 1.090449-30.113461 214.635391)" opacity="0.13" fill="#d2dbed" stroke-width="0"/><path id="eyqOYsF7iT420" d="M5.528229,2.542402h58.6613L60.015153,9.055148L-0.531636,9.055143L5.528229,2.542402Z" transform="matrix(.976913 0 0 1.090449 242.886538 214.669837)" fill="#d2dbed" stroke-width="0"/><path d="M5.528229,2.542402h58.6613L60.015153,9.055148L-0.531636,9.055143L5.528229,2.542402Z" transform="matrix(.976913 0 0 1.090449 424.886538 214.635391)" fill="#d2dbed" stroke-width="0"/><path id="eyqOYsF7iT422" d="M5.528229,2.542402h58.6613L60.015153,9.055148L-0.531636,9.055143L5.528229,2.542402Z" transform="matrix(.976913 0 0 1.090449 515.886538 214.696465)" opacity="0" fill="#d2dbed" stroke-width="0"/><path id="eyqOYsF7iT423" d="M5.528229,2.542402h58.6613L60.015153,9.055148L-0.531636,9.055143L5.528229,2.542402Z" transform="matrix(.976913 0 0 1.090449 606.886538 214.750148)" opacity="0" fill="#d2dbed" stroke-width="0"/><path id="eyqOYsF7iT424" d="M5.528229,2.542402h58.6613L60.015153,9.055148L-0.531636,9.055143L5.528229,2.542402Z" transform="matrix(.976913 0 0 1.090449 697.886538 214.818126)" opacity="0" fill="#d2dbed" stroke-width="0"/><path d="M5.528229,2.542402h58.6613L60.015153,9.055148L-0.531636,9.055143L5.528229,2.542402Z" transform="matrix(.976913 0 0 1.090449 788.886538 214.635391)" opacity="0" fill="#d2dbed" stroke-width="0"/><path d="M5.528229,2.542402h58.6613L60.015153,9.055148L-0.531636,9.055143L5.528229,2.542402Z" transform="matrix(.976913 0 0 1.090449 333.886538 214.670357)" fill="#d2dbed" stroke-width="0"/></g><mask id="eyqOYsF7iT427" mask-type="luminance" x="-150%" y="-150%" height="400%" width="400%"><rect width="498.420037" height="25.370395" rx="0" ry="0" transform="translate(.000131 215.369248)" fill="#d2dbed" stroke-width="0"/></mask></g><path d="M85.054635,217.271961c0,0-143.109909-.568647-147.743201-.568647s-4.479817-93.426643,3.172985-101.138893s244.391057-9.34396,250.311018-.928433c4.08107,5.80145,11.072595,48.198355,11.072595,48.198355s43.365978,1.530079,50.179174,6.713512s5.057902,48.156363,5.057902,48.156363h-19.023653c0,0-4.709273-13.031797-18.219664-13.031797s-17.988365,13.031797-17.988365,13.031797l-116.357201-.432257" transform="translate(164.120402-1.216866)" fill="#91b6d5" stroke="#8998a5" stroke-width="0.6"/><path d="M261.943349,209.22763c0,0,2.950465-20.13635-3.317721-22.878682s-50.752663-9.413993-62.374925-1.448174-7.756119,33.012268-7.756119,33.012268l73.920946-.028766c-.450396-.10672-.183357-2.510299-.472181-8.656646Z" transform="translate(164.107561-1.370729)" fill="#b9d5ec" stroke-width="0.6"/><path d="M85.071883,217.383327l6.629614-.029697c0,0-.55628-8.272668-7.395501-14.255801s-28.111178-5.864233-34.794152-.110035-7.299582,14.334687-7.299582,14.334687l8.731831.162484c0,0,3.742902-.304926,15.675963-.512458s18.451827.41082,18.451827.41082Z" transform="translate(118.649144-1.130312)" fill="#004275" stroke-width="0.6"/><path d="M85.198276,217.452561l6.524366.035458c0,0-.577425-8.018403-7.416646-14.39019s-29.14038-6.223985-35.823354-.120064-7.142554,14.400312-7.142554,14.400312l9.604005.106888c0,0,3.742902-.304926,15.675963-.512458s18.57822.480054,18.57822.480054Z" transform="translate(316.271232-.850752)" fill="#004275" stroke-width="0.6"/><path d="M85.071883,217.383327l4.68-.04c0,0-.52477-7.438334-7.176352-12.670911s-24.246376-5.037363-31.108558,0-6.704102,12.714434-6.704102,12.714434l6.181222.098115c0,0,3.742902-.304926,15.675963-.512458s18.451827.41082,18.451827.41082Z" transform="translate(118.95036-.8899)" filter="url(#eyqOYsF7iT433-filter)" fill="#000f1b" stroke-width="0.6"/><ellipse rx="118.795321" ry="12.472487" transform="matrix(1.247815 0 0 1 226.735254 232.263859)" opacity="0.9" fill="#1e5887" stroke-width="0"/><path d="M86.931071,217.627754l4.071987.03139c0,0-.343757-8.175362-6.995339-13.407939s-25.678564-4.616152-32.540746.421211-6.704102,12.714434-6.704102,12.714434l6.441748.22871c0,0,4.20064.514693,17.775669.09483s17.950783-.082636,17.950783-.082636Z" transform="translate(315.009562-1.009433)" filter="url(#eyqOYsF7iT435-filter)" fill="#00192c" stroke-width="0.6"/><g transform="matrix(.999806-.019702 0.019702 0.999806 311.597111-1.737101)"><ellipse rx="20.128102" ry="21.424163" transform="matrix(.919113 0 0 0.863511 67.933429 223.919906)" fill="#002b4e" stroke-width="0"/><ellipse rx="12.05451" ry="12.49407" transform="translate(68.143507 224.213233)" fill="#bdc5d5" stroke-width="0"/><ellipse rx="12.05451" ry="12.49407" transform="matrix(.964874 0 0 0.954835 68.143507 224.213233)" fill="#64849f" stroke-width="0"/><g id="eyqOYsF7iT440"><ellipse rx="1.77142" ry="1.540364" transform="matrix(.897601 0 0 1.021309 68.663906 215.454463)" fill="#001329" stroke-width="0"/><ellipse rx="1.77142" ry="1.540364" transform="matrix(.897601 0 0 1.021309 76.120014 220.941823)" fill="#001329" stroke-width="0"/><ellipse rx="1.77142" ry="1.540364" transform="matrix(.897601 0 0 1.021309 75.514488 229.380321)" fill="#001329" stroke-width="0"/><ellipse rx="1.77142" ry="1.540364" transform="matrix(.897601 0 0 1.021309 68.082818 232.788447)" fill="#001329" stroke-width="0"/><ellipse rx="1.77142" ry="1.540364" transform="matrix(.897601 0 0 1.021309 60.556541 228.460276)" fill="#001329" stroke-width="0"/><ellipse rx="1.77142" ry="1.540364" transform="matrix(.897601 0 0 1.021309 60.677596 220.069737)" fill="#001329" stroke-width="0"/></g><ellipse rx="5.009022" ry="4.723956" transform="translate(68.019594 224.180669)" fill="#b9d5ec" stroke-width="0"/><ellipse rx="0.65158" ry="0.529409" transform="matrix(.964777 0 0 1.148069 67.978869 224.139945)" fill="#012340" stroke-width="0"/></g><g transform="translate(118.302142-1.851553)"><ellipse rx="20.128102" ry="21.424163" transform="matrix(.919113 0 0 0.863511 67.909748 224.091196)" fill="#002b4e" stroke-width="0"/><ellipse rx="12.05451" ry="12.49407" transform="translate(68.143507 224.213233)" fill="#bdc5d5" stroke-width="0"/><ellipse rx="12.05451" ry="12.49407" transform="matrix(.964874 0 0 0.954835 68.143507 224.213233)" fill="#64849f" stroke-width="0"/><g id="eyqOYsF7iT453"><ellipse rx="1.77142" ry="1.540364" transform="matrix(.897601 0 0 1.021309 68.470755 215.647614)" fill="#001329" stroke-width="0"/><ellipse rx="1.77142" ry="1.540364" transform="matrix(.897601 0 0 1.021309 76.120014 220.941823)" fill="#001329" stroke-width="0"/><ellipse rx="1.77142" ry="1.540364" transform="matrix(.897601 0 0 1.021309 75.232802 229.286425)" fill="#001329" stroke-width="0"/><ellipse rx="1.77142" ry="1.540364" transform="matrix(.897601 0 0 1.021309 68.082818 232.788447)" fill="#001329" stroke-width="0"/><ellipse rx="1.77142" ry="1.540364" transform="matrix(.897601 0 0 1.021309 60.556541 228.460276)" fill="#001329" stroke-width="0"/><ellipse rx="1.77142" ry="1.540364" transform="matrix(.897601 0 0 1.021309 60.677596 220.069737)" fill="#001329" stroke-width="0"/></g><ellipse rx="5.009022" ry="4.723956" transform="translate(68.019594 224.180669)" fill="#b9d5ec" stroke-width="0"/><ellipse rx="0.65158" ry="0.529409" transform="matrix(.964777 0 0 1.148069 67.978869 224.139945)" fill="#012340" stroke-width="0"/></g><path d="M40.264158,217.121684c0,0,0-4.575278-.076255-4.804042-6.481063-.043643-17.523295.075218-17.88699-.433952s.436433-5.528187-.509175-6.401053-12.978998-.875547-13.893346.002227-.111489,9.895308,1.925208,11.568311c8.074051.145477,30.440558.068509,30.440558.068509Z" transform="translate(91.345135-1.126906)" fill="#000e1e" stroke-width="0.6"/><path d="M261.552431,217.704216c1.298212-.449893,3.081943-9.647754,0-11.006635s-16.584552-.966364-16.584552-.966364-.47108,6.009826-.0494,12.241319c3.949735.014057,15.33574.181573,16.633952-.26832Z" transform="translate(168.055239-1.370727)" fill="#001329" stroke-width="0.6"/><rect width="30" height="30" rx="1" ry="1" transform="matrix(.979148 0 0 3.020091 308.014163 125.410821)" fill="#b9d5ec" stroke="#000"/><rect width="14.68722" height="32.663366" rx="3" ry="3" transform="matrix(.622804 0 0 0.878838 311.082392 130.852075)" fill="#001329" stroke-width="0"/><rect width="14.68722" height="32.663366" rx="3" ry="3" transform="matrix(.622804 0 0 1.113591 311.082392 172.296386)" fill="#001329" stroke-width="0"/><rect width="14.68722" height="32.663366" rx="3" ry="3" transform="matrix(.622804 0 0 1.113591 325.06894 172.296386)" fill="#001329" stroke-width="0"/><rect width="14.68722" height="32.663366" rx="3" ry="3" transform="matrix(.622804 0 0 0.878838 325.06894 130.852075)" fill="#001329" stroke-width="0"/><rect width="38.188509" height="35.916973" rx="3" ry="3" transform="matrix(.850644 0 0 1.148789 123.238555 124.319604)" fill="#001329"/><rect width="38.188509" height="35.916973" rx="3" ry="3" transform="matrix(.850644 0 0 1.148789 171.63217 124.060971)" fill="#001329"/><rect width="38.188509" height="35.916973" rx="3" ry="3" transform="matrix(.850644 0 0 1.148789 262.002581 124.060971)" fill="#001329"/><rect width="38.188509" height="35.916973" rx="3" ry="3" transform="matrix(.850644 0 0 1.148789 217.515174 124.060971)" fill="#001329"/><path d="M190.199414,162.128098c-3.689515.129722-8.072866.421945-8.467279-.651329s-1.856786-33.650774-.270007-33.650774s1.985626.032565,2.661488.032565c1.009651,10.017269,4.910791,25.615556,6.075798,34.269538Z" transform="translate(175.78902-.347789)" fill="#001329" stroke-width="0.6"/><path d="M12.865777,122.746875c0,0,3.436086,5.715892,3.436086,12.542981s0,26.893864,0,28.459409-6.248449.258633-6.248449.258633c-.651262-10.256322.841926-29.603952,2.812363-41.261023Z" transform="translate(88.302958 1.572729)" fill="#001329" stroke-width="0.6"/><rect width="123.143824" height="6.543875" rx="0" ry="0" transform="matrix(1.672958 0 0 1 98.032373 171.089818)" fill="#000e1e" stroke-width="0"/><rect width="123.143824" height="6.543875" rx="0" ry="0" transform="matrix(1.672958 0 0 1 98.032373 180.520776)" fill="#000e1e" stroke-width="0"/><ellipse rx="2.707228" ry="5.827423" transform="matrix(.983815-.179186 0.179186 0.983815 419.403821 177.544397)" fill="#b9d5ec" stroke-width="0"/><polygon points="65.75,22.72 34.25,22.72 18.5,50 34.25,77.28 65.75,77.28 81.5,50 65.75,22.72" transform="matrix(.418048 0 0 0.414193 244.174082 158.415745)" fill="#004275" stroke="#b9d5ec"/><path d="M351.543695,156.43846v2.741863l28.637204.152325.152326-14.166277c0,0,2.469372,0,4.11279-.000001c2.810883-.000002,1.811243-14.623253-.304651-14.623253-3.33593,0-11.119766-.000001-11.119766-.000001l.152326,14.623253h3.655813l.152326,11.272091h-25.438368Z" transform="translate(0 0.000003)" fill="#004275"/><rect width="36.741658" height="59.566035" rx="0" ry="0" transform="translate(-36.741528 199.931222)" fill="none" stroke-width="0"/>
</svg>
