<svg id="eCaBus6tT9j1" xmlns="http://www.w3.org/2000/svg" xmlns:xlink="http://www.w3.org/1999/xlink" viewBox="0 0 1920 1080" shape-rendering="geometricPrecision" text-rendering="geometricPrecision"><defs><filter id="eCaBus6tT9j21-filter" x="-150%" width="400%" y="-150%" height="400%"><feGaussianBlur id="eCaBus6tT9j21-filter-drop-shadow-0-blur" in="SourceAlpha" stdDeviation="2,1"/><feOffset id="eCaBus6tT9j21-filter-drop-shadow-0-offset" dx="0" dy="0" result="tmp"/><feFlood id="eCaBus6tT9j21-filter-drop-shadow-0-flood" flood-color="#000"/><feComposite id="eCaBus6tT9j21-filter-drop-shadow-0-composite" operator="in" in2="tmp"/><feMerge id="eCaBus6tT9j21-filter-drop-shadow-0-merge" result="result"><feMergeNode id="eCaBus6tT9j21-filter-drop-shadow-0-merge-node-1"/><feMergeNode id="eCaBus6tT9j21-filter-drop-shadow-0-merge-node-2" in="SourceGraphic"/></feMerge></filter><filter id="eCaBus6tT9j22-filter" x="-150%" width="400%" y="-150%" height="400%"><feGaussianBlur id="eCaBus6tT9j22-filter-inner-shadow-0-blur" in="SourceAlpha" stdDeviation="2,2"/><feOffset id="eCaBus6tT9j22-filter-inner-shadow-0-offset" dx="0" dy="0" result="tmp"/><feComposite id="eCaBus6tT9j22-filter-inner-shadow-0-composite" operator="arithmetic" k2="-1" k3="1" in2="SourceGraphic"/><feColorMatrix id="eCaBus6tT9j22-filter-inner-shadow-0-color-matrix" type="matrix" values="0 0 0 0 0 0 0 0 0 0 0 0 0 0 0 0 0 0 1 0"/><feMerge id="eCaBus6tT9j22-filter-inner-shadow-0-merge" result="result"><feMergeNode id="eCaBus6tT9j22-filter-inner-shadow-0-merge-node-1" in="SourceGraphic"/><feMergeNode id="eCaBus6tT9j22-filter-inner-shadow-0-merge-node-2"/></feMerge><feGaussianBlur id="eCaBus6tT9j22-filter-drop-shadow-0-blur" in="result" stdDeviation="2,0"/><feOffset id="eCaBus6tT9j22-filter-drop-shadow-0-offset" dx="0" dy="0" result="tmp"/><feFlood id="eCaBus6tT9j22-filter-drop-shadow-0-flood" flood-color="#000"/><feComposite id="eCaBus6tT9j22-filter-drop-shadow-0-composite" operator="in" in2="tmp"/><feMerge id="eCaBus6tT9j22-filter-drop-shadow-0-merge" result="result"><feMergeNode id="eCaBus6tT9j22-filter-drop-shadow-0-merge-node-1"/><feMergeNode id="eCaBus6tT9j22-filter-drop-shadow-0-merge-node-2" in="result"/></feMerge></filter><filter id="eCaBus6tT9j28-filter" x="-150%" width="400%" y="-150%" height="400%"><feGaussianBlur id="eCaBus6tT9j28-filter-drop-shadow-0-blur" in="SourceAlpha" stdDeviation="2,0"/><feOffset id="eCaBus6tT9j28-filter-drop-shadow-0-offset" dx="0" dy="1" result="tmp"/><feFlood id="eCaBus6tT9j28-filter-drop-shadow-0-flood" flood-color="#000"/><feComposite id="eCaBus6tT9j28-filter-drop-shadow-0-composite" operator="in" in2="tmp"/><feMerge id="eCaBus6tT9j28-filter-drop-shadow-0-merge" result="result"><feMergeNode id="eCaBus6tT9j28-filter-drop-shadow-0-merge-node-1"/><feMergeNode id="eCaBus6tT9j28-filter-drop-shadow-0-merge-node-2" in="SourceGraphic"/></feMerge></filter><linearGradient id="eCaBus6tT9j31-fill" x1="0.491801" y1="-0.199295" x2="0.4755" y2="0.706318" spreadMethod="pad" gradientUnits="objectBoundingBox" gradientTransform="translate(0 0)"><stop id="eCaBus6tT9j31-fill-0" offset="0%" stop-color="#000"/><stop id="eCaBus6tT9j31-fill-1" offset="100%" stop-color="#3f5787"/></linearGradient></defs><g transform="matrix(3.56692 0 0 4.157721-2541.779416-847.900649)"><ellipse rx="250.625955" ry="76.213741" transform="matrix(.836256 0 0 1 983.450382 375.114503)" fill="#1e62bc" stroke-width="0"/><ellipse id="eCaBus6tT9j4" rx="192" ry="108" transform="matrix(.093286 0 0 0.140952 912.745414 424.590272)" fill="#6b95ea" stroke-width="0"/><ellipse id="eCaBus6tT9j5" rx="192" ry="108" transform="matrix(.066501 0 0 0.102123 810.747083 392.78476)" fill="#6b95ea" stroke-width="0"/><ellipse id="eCaBus6tT9j6" rx="192" ry="108" transform="matrix(.048645 0 0 0.0742 791.890249 364.685525)" fill="#6b95ea" stroke-width="0"/><ellipse id="eCaBus6tT9j7" rx="192" ry="108" transform="matrix(.041574 0 0 0.058108 811.269938 342.097941)" fill="#6b95ea" stroke-width="0"/><ellipse id="eCaBus6tT9j8" rx="192" ry="108" transform="matrix(.041574 0 0 0.058108 1155.665856 343.460206)" fill="#6b95ea" stroke-width="0"/><ellipse id="eCaBus6tT9j9" rx="192" ry="108" transform="matrix(.048645 0 0 0.0742 1175.419462 370.959646)" fill="#6b95ea" stroke-width="0"/><ellipse id="eCaBus6tT9j10" rx="192" ry="108" transform="matrix(.066501 0 0 0.102123 1148.250131 398.311301)" fill="#6b95ea" stroke-width="0"/><ellipse id="eCaBus6tT9j11" rx="192" ry="108" transform="matrix(.079895 0 0 0.114253 857.03204 412.9027)" fill="#6b95ea" stroke-width="0"/><ellipse id="eCaBus6tT9j12" rx="192" ry="108" transform="matrix(.079895 0 0 0.114253 1102.170883 415.474086)" fill="#6b95ea" stroke-width="0"/><ellipse id="eCaBus6tT9j13" rx="192" ry="108" transform="matrix(.094561 0 0 0.156427 978.155712 429.656526)" fill="#6b95ea" stroke-width="0"/><ellipse id="eCaBus6tT9j14" rx="192" ry="108" transform="matrix(.093286 0 0 0.140952 1043.028996 424.590272)" fill="#6b95ea" stroke-width="0"/><path d="M433.490621,219.202c0-65.469218,6.567946-65.578017,6.567946-65.578017s7.199733-18.275569,34.939674-29.807308c2.998229-1.24639,4.160695-1.997956,15.153471-5.649628c3.328589-1.174108,12.183667-3.036712,15.779433-3.751172s5.603054-1.192387,12.261996-1.412134s22.997058,1.165455,32.409591,3.176226s23.055467,7.283962,30.413974,11.936944s13.613166,12.29573,17.386435,18.622828s7.533537,22.401783,7.533537,22.401783l5.036094,48.682239c0,0-18.939579,5.644033-31.326297,7.599799s-38.514005,4.849581-51.935449,5.163153-41.946098-.75809-56.214543-2.250245-38.005862-9.134468-38.005862-9.134468Z" transform="matrix(.954776 0 0 1.358825 486.462976 62.739989)" fill="#d2dbed" stroke="rgba(63,87,135,0)" stroke-width="3.84"/></g><ellipse id="eCaBus6tT9j16" rx="192" ry="108" transform="matrix(.129085 0 0 0.188104 466.797338 510.862153)" fill="#6b95ea" stroke-width="0"/><ellipse id="eCaBus6tT9j17" rx="192" ry="108" transform="matrix(.098712 0 0 0.137343 576.206674 472.574154)" fill="#ddef1b" stroke-width="0"/><ellipse id="eCaBus6tT9j18" rx="192" ry="108" transform="matrix(.098712 0 0 0.137343 1348.28105 467.352244)" fill="#6b95ea" stroke-width="0"/><ellipse id="eCaBus6tT9j19" rx="192" ry="108" transform="matrix(.129085 0 0 0.188104 1468.895322 511.735113)" fill="#6b95ea" stroke-width="0"/><g transform="translate(-.635915 36.025876)"><path d="M901.126184,667.51547l-1.045851-28.62644c0,0-62.207568-72.349642-62.592562-118.564543s40.340719-80.310965,73.351653-80.478629s76.944447,24.782774,77.600921,76.840304-58.06016,120.778161-58.772513,122.20287c-.887259.943631-.479335,9.456244-.125299,28.820532l-28.416349-.194094Z" transform="matrix(1.085298 0 0 1.291803-19.700815-188.096087)" filter="url(#eCaBus6tT9j21-filter)" fill="#3f5787" stroke="#3f5787" stroke-width="8"/><path d="M1035.751533,686.302696l4.494986-24.998425c0,0-3.27847-10.961965-2.461091-16.018546s4.708752-10.953382,4.708752-10.953382-5.413254-65.317946,2.172849-63.89717s6.001412,88.463235,6.001412,88.463235c-.49948.49948,20.768208-91.998167,26.715903-89.576437s-13.912,59.765829-13.912,59.765829s3.065434,12.656662,2.606795,17.394106-5.603675,11.825482-5.603675,11.825482l-3.748791,25.002862-20.97514,2.992446Z" transform="matrix(.942946 0 0 0.998682 70.35181-15.597528)" filter="url(#eCaBus6tT9j22-filter)" fill="#3f5787" stroke="#3f5787" stroke-width="8"/><path d="M960.421767,486.975922c0-.464141-3.044792-24.622962-15.115775-34.06009s-31.329517-7.658326-31.329517-7.658326.049845,22.19184,7.658326,29.240881s38.786966,12.477535,38.786966,12.477535Z" transform="matrix(1.080548 0 0 1.17662-81.041805-66.093138)" stroke-width="3.84"/><path d="M946.594562,475.442013c0-.464141,4.267703-6.807634-7.80328-16.244762s-15.606562-4.568839-15.606562-4.568839.194801,4.626878,7.803282,11.675919s15.60656,9.137682,15.60656,9.137682Z" transform="matrix(.72071 0 0 0.457091 247.415717 253.648391)" fill="#fff" stroke-width="3.84"/><path d="M960.421767,486.975922c0-.464141-3.044792-24.622962-15.115775-34.06009s-31.329517-7.658326-31.329517-7.658326.049845,22.19184,7.658326,29.240881s38.786966,12.477535,38.786966,12.477535Z" transform="matrix(-1.093057 0 0 1.117799 2035.933231-37.375839)" stroke-width="3.84"/><path d="M946.594562,475.442013c0-.464141,4.267703-6.807634-7.80328-16.244762s-15.606562-4.568839-15.606562-4.568839.194801,4.626878,7.803282,11.675919s15.60656,9.137682,15.60656,9.137682Z" transform="matrix(-.72071 0 0 0.457091 1694.152861 255.742682)" fill="#fff" stroke-width="3.84"/><path d="M946.594562,475.442013c0-.464141,4.267703-6.807634-7.80328-16.244762s-15.606562-4.568839-15.606562-4.568839.194801,4.626878,7.803282,11.675919s15.60656,9.137682,15.60656,9.137682Z" transform="matrix(-1.212045 0 0 0.908107 2079.149363-26.503616)" opacity="0.53" fill="#fff" stroke-width="3.84"/><path d="M950.591667,572.425981c-2.360416,4.47835,14.729846,20.730709,23.895568,20.78s25.962948-16.671347,23.099832-20.620151-16.898136,15.548589-23.458208,15.547993-21.176776-20.186192-23.537192-15.707842Z" transform="translate(-.959688 0)" filter="url(#eCaBus6tT9j28-filter)" stroke-width="8"/></g><ellipse rx="2.834782" ry="2.963637" transform="translate(968.523615 584.576119)" stroke-width="0"/><ellipse rx="2.834782" ry="2.963637" transform="translate(976.697483 584.387568)" stroke-width="0"/><path d="M953.947103,627.08295c.404957-.109057,12.146953,21.270393,20.058103,21.243849s20.05195-19.978418,20.05195-19.978418l.610289,38.201968q-39.615878-.447027-39.615878-.728356c0-.281329-1.28172-38.691307-1.104464-38.739043Z" transform="matrix(1 0 0 1.032737-1.558749 27.557303)" fill="url(#eCaBus6tT9j31-fill)" stroke-width="3.84"/>

</svg>
