<svg id="eRahCvfGqnb1" xmlns="http://www.w3.org/2000/svg" xmlns:xlink="http://www.w3.org/1999/xlink" viewBox="0 0 300 300" shape-rendering="geometricPrecision" text-rendering="geometricPrecision"><path id="eRahCvfGqnb2" d="M151.579042,252.09533c0,0-78.761162-75.836228-83.43001-78.867431s-12.438984-5.858797-15.643127-2.607188-1.518395,9.642396,2.50817,14.4433s96.564967,67.031319,96.564967,67.031319Z" transform="translate(.000001-.606898)" fill="#d7b46d" stroke="#000" stroke-width="0.6"/><path d="M150,34.980324c-54.875383,0-46.57698,81.329255-46.57698,81.329255L150,150q45.10841-33.690421,44.816907-33.690421c-.291503,0,10.058476-81.329255-44.816907-81.329255Z" fill="#e3be73" stroke="#000" stroke-width="0.6"/><path d="M149.64284,92.490161c-21.419992.000025-51.177347,2.421744-51.177347,23.819414c0,18.271837,6.289001,31.408681,22.897398,33.690421c22.176036,3.046649,36.636248,2.586698,51.72373,0c26.20898-4.493441,29.032186-20.343196,27.340789-33.690421-2.396691-18.912868-29.364578-23.819437-50.78457-23.819414Z" transform="translate(-.130784 0.000004)" fill="#ffe0a0" stroke="#000" stroke-width="0.6"/><ellipse rx="6.777437" ry="6.340184" transform="matrix(1 0 0 1.269327 166.1784 70.179273)"/><ellipse rx="6.777437" ry="6.340184" transform="matrix(1 0 0 1.269327 135.611054 70.179273)"/><path d="M149.562807,92.395374c-2.734818-.016333-7.303793-.473573-9.958204.788059-.561637.266944-1.121637,1.866944-1.502027,3.329052-2.581554,6.485869,6.069663,14.933296,11.464918,14.933296s12.890829-8.304143,11.601277-13.533992c-.390864-2.097244-.774159-3.97113-1.4745-4.434869-2.485946-1.646098-7.37112-1.06506-10.131464-1.081546Z" transform="translate(-.143282 0.000002)" stroke-width="0.6"/><path d="M126.743695,60.905014c0,0,5.017092-5.057972,8.867359-5.057972s8.636045,5.057972,8.636045,5.057972" transform="translate(.752188-1.654812)" fill="none" stroke="#000" stroke-width="1.5"/><path d="M126.743695,60.905014c0,0,5.017092-5.057972,8.867359-5.057972s8.636045,5.057972,8.636045,5.057972" transform="translate(30.683003-1.654812)" fill="none" stroke="#000" stroke-width="1.5"/><path d="M149.062494,110.049382l.449562,23.120219c0,0,8.083402,6.412908,16.666343,6.412908s16.129958-9.788122,16.129958-9.788122" transform="translate(.168762 0)" fill="none" stroke="#000" stroke-width="1.5"/><path d="M118.878994,131.516195c0,0,3.688068,8.066315,14.657515,8.235075s15.975548-6.581669,15.975548-6.581669" fill="none" stroke="#000" stroke-width="1.5"/><ellipse rx="30" ry="30" transform="matrix(.03144 0 0-.030788 129.860533 102.797324)" stroke="#000"/><ellipse rx="30" ry="30" transform="matrix(.03144 0 0-.030788 115.184705 105.503918)" stroke="#000"/><ellipse rx="30" ry="30" transform="matrix(-.03144 0 0-.030788 168.093494 102.797324)" stroke="#000"/><ellipse rx="30" ry="30" transform="matrix(-.03144 0 0-.030788 181.826122 105.065297)" stroke="#000"/><ellipse rx="30" ry="30" transform="matrix(-.03144 0 0-.030788 182.769322 116.596662)" stroke="#000"/><ellipse rx="30" ry="30" transform="matrix(-.03144 0 0-.030788 167.1216 113.669382)" stroke="#000"/><ellipse rx="30" ry="30" transform="matrix(.03144 0 0-.030788 116.127905 116.596662)" stroke="#000"/><ellipse rx="30" ry="30" transform="matrix(.03144 0 0-.030788 129.860533 113.669382)" stroke="#000"/><path d="M121.232107,46.093624c0,0-6.990602-5.119067-28.12359,13.156578s-20.784672,80.332307-20.784672,80.332307-1.977923,9.016986,10.311091,10.417486s19.267593-13.373266,19.267593-13.373266-3.258435-6.903851-3.56782-16.573589c-.923813-5.099785.813807-13.299428,4.645645-16.33218-.32502-9.379649,1.634413-26.145992,4.593266-33.541692c1.743477-8.271251,8.576262-20.264204,13.658487-24.085644Z" transform="translate(-.064203 0.000005)" fill="#5c4008" stroke="#000" stroke-width="0.6"/><path d="M118.103379,46.589982c0,0-3.861874-5.615425-24.994862,12.66022s-20.784672,80.332307-20.784672,80.332307-1.977923,9.016986,10.311091,10.417486s18.56464-11.811934,18.56464-11.811934c-.486728-.439551-5.535545-8.422948-4.652321-17.38542-.418932-5.099785,2.085133-12.265976,5.441315-15.298728-.287493-9.379649,1.065384-27.928945,3.685508-35.324645c1.813953-8.220911,7.701586-19.514625,12.429301-23.589286Z" transform="matrix(-1 0 0 1 297.402602 0.000005)" fill="#5c4008" stroke="#000" stroke-width="0.6"/><path d="M121.232107,150c15.256831,2.095283,24.739871,2.521571,28.096612,2.336385s14.680825-.573759,29.533311-3.450212c0,0,37.359735,54.157914,35.905636,93.537803s-39.837563,42.605321-72.379175,42.599583-59.817758-4.44632-59.817758-42.599583s38.661374-92.423975,38.661374-92.423976Z" transform="translate(.454186 0.000002)" fill="#d7b46d" stroke="#000" stroke-width="0.6"/><path d="M81.837141,247.136137c-12.037153.171316-17.594916,2.604686-19.168857,11.814613.167577,7.885085,6.183975,12.706737,15.186354,13.481763c9.217492.590397,15.618029-.718046,20.610052-5.57866-3.573928-2.507283-12.518807-7.428838-16.627549-19.717716Z" transform="matrix(-1 0 0 1 294.331758 9.944859)" fill="#bc9d5f" stroke="#000" stroke-width="0.6"/><path d="M81.266999,247.20313c-12.037153.171316-17.024774,2.537693-18.598715,11.74762.167577,7.885085,6.183975,12.706737,15.186354,13.481763c9.217492.590397,15.892789-1.015875,20.884812-5.876489-3.573928-2.507283-13.363709-7.064016-17.472451-19.352894Z" transform="translate(4.367404 13.079092)" fill="#bc9d5f" stroke="#000" stroke-width="0.6"/><path d="M111.149774,214.490371c-.252621,29.074794,5.996551,60.822112,5.372929,63.926298s-6.390128,6.96894-6.665429,10.865381c.013803,5.742863,9.409445,7.940551,15.554445,8.88799c7.708353-.758552,12.739169-2.347576,13.827357-7.407514.98744-4.591471-2.131174-7.256839-3.161115-11.868062s4.900202-63.471956,4.900202-63.471956" transform="translate(.000001 0.000003)" fill="#d7b46d" stroke="#000" stroke-width="0.6"/><path d="M111.149774,214.490371c-.252621,29.074794,5.996551,60.822112,5.372929,63.926298s-3.333164,7.35202-3.608465,11.248461c.013803,5.742863,6.352481,7.557471,12.497481,8.50491c7.708353-.758552,14.999849-1.935798,16.088037-6.995736.98744-4.591471-4.391854-7.668617-5.421795-12.27984s4.900202-63.471956,4.900202-63.471956" transform="translate(50.36217 0.242129)" fill="#d7b46d" stroke="#000" stroke-width="0.6"/>
</svg>
