<svg id="e0aj2PHcnGk1" xmlns="http://www.w3.org/2000/svg" xmlns:xlink="http://www.w3.org/1999/xlink" viewBox="0 0 300 300" shape-rendering="geometricPrecision" text-rendering="geometricPrecision"><defs><filter id="e0aj2PHcnGk20-filter" x="-150%" width="400%" y="-150%" height="400%"><feGaussianBlur id="e0aj2PHcnGk20-filter-inner-shadow-0-blur" in="SourceAlpha" stdDeviation="2,2"/><feOffset id="e0aj2PHcnGk20-filter-inner-shadow-0-offset" dx="0" dy="0" result="tmp"/><feComposite id="e0aj2PHcnGk20-filter-inner-shadow-0-composite" operator="arithmetic" k2="-1" k3="1" in2="SourceGraphic"/><feColorMatrix id="e0aj2PHcnGk20-filter-inner-shadow-0-color-matrix" type="matrix" values="0 0 0 0 0 0 0 0 0 0 0 0 0 0 0 0 0 0 1 0"/><feMerge id="e0aj2PHcnGk20-filter-inner-shadow-0-merge" result="result"><feMergeNode id="e0aj2PHcnGk20-filter-inner-shadow-0-merge-node-1" in="SourceGraphic"/><feMergeNode id="e0aj2PHcnGk20-filter-inner-shadow-0-merge-node-2"/></feMerge></filter><filter id="e0aj2PHcnGk21-filter" x="-150%" width="400%" y="-150%" height="400%"><feGaussianBlur id="e0aj2PHcnGk21-filter-inner-shadow-0-blur" in="SourceAlpha" stdDeviation="2,2"/><feOffset id="e0aj2PHcnGk21-filter-inner-shadow-0-offset" dx="0" dy="0" result="tmp"/><feComposite id="e0aj2PHcnGk21-filter-inner-shadow-0-composite" operator="arithmetic" k2="-1" k3="1" in2="SourceGraphic"/><feColorMatrix id="e0aj2PHcnGk21-filter-inner-shadow-0-color-matrix" type="matrix" values="0 0 0 0 0 0 0 0 0 0 0 0 0 0 0 0 0 0 1 0"/><feMerge id="e0aj2PHcnGk21-filter-inner-shadow-0-merge" result="result"><feMergeNode id="e0aj2PHcnGk21-filter-inner-shadow-0-merge-node-1" in="SourceGraphic"/><feMergeNode id="e0aj2PHcnGk21-filter-inner-shadow-0-merge-node-2"/></feMerge></filter><radialGradient id="e0aj2PHcnGk27-fill" cx="0" cy="0" r="0.5" spreadMethod="pad" gradientUnits="objectBoundingBox" gradientTransform="translate(0.5 0.5)"><stop id="e0aj2PHcnGk27-fill-0" offset="0%" stop-color="#f3f22c"/><stop id="e0aj2PHcnGk27-fill-1" offset="8%" stop-color="#f4f22d"/><stop id="e0aj2PHcnGk27-fill-2" offset="62%" stop-color="rgba(244,242,45,0.7)"/><stop id="e0aj2PHcnGk27-fill-3" offset="82%" stop-color="rgba(243,242,44,0.36)"/><stop id="e0aj2PHcnGk27-fill-4" offset="100%" stop-color="rgba(243,242,44,0)"/></radialGradient></defs><g><g><rect width="256.76346" height="42.530137" rx="5" ry="5" transform="matrix(1.003749 0 0 1 23.045573 209.51615)" fill="#3b2350" stroke="#293a5d"/><rect width="210.428029" height="10.20022" rx="2" ry="2" transform="translate(44.785986 225.681109)" fill="#7b50a0" stroke-width="0"/></g><g id="e0aj2PHcnGk6" transform="translate(.428542-62.81023)"><rect width="197.600584" height="144.859337" rx="10" ry="10" transform="matrix(.948825 0 0 1.313477 57.735877 101.852997)" fill="#fdfeff" stroke-width="0"/><rect width="161.853362" height="141.397804" rx="0" ry="0" transform="translate(71.039042 117.979429)" fill="#aeaeae" stroke-width="0"/></g><path d="M48.934975,32.791942c-8.498847,11.292274,0,94.724209,0,94.724209h211.432314c0,0,7.579484-85.376178,0-94.724209s-202.933467-11.292274-211.432314,0Z" transform="translate(.000002 0)" fill="#cc92ff" stroke="#293a5d" stroke-width="2"/><path d="M48.934977,150L23.792386,236.704785l255.640867-.009188L260.367291,150c-98.075677.167551-211.432314,0-211.432314,0Z" transform="translate(0-22.483849)" fill="#a069cf" stroke="#293a5d" stroke-width="2"/><rect width="19.498999" height="98.337238" rx="0" ry="0" transform="matrix(1 0 0 0.869457 125.195896 128.177471)" fill="#b832b4" stroke-width="0"/><rect width="19.498999" height="109.457934" rx="0" ry="0" transform="matrix(1 0 0 0.781122 164.193894 128.177471)" fill="#b832b4" stroke-width="0"/><rect width="19.498999" height="109.457934" rx="0" ry="0" transform="matrix(1 0 0 0.781122 144.694894 128.113949)" fill="#2b7391" stroke-width="0"/><g><rect width="256.76346" height="36.886894" rx="5" ry="5" transform="matrix(1.003749 0 0 0.542198 23.045573 209.51615)" fill="#3b2350"/><rect width="210.428029" height="10.20022" rx="2" ry="2" transform="matrix(1 0 0-.479167 44.785986 230.568717)" fill="#7b50a0" stroke-width="0"/></g><rect width="19.498999" height="100" rx="0" ry="0" transform="translate(144.694895 26.276134)" fill="#45a4cc" stroke-width="0"/><rect width="19.498999" height="100" rx="0" ry="0" transform="translate(164.193893 26.276133)" fill="#e63ee1" stroke-width="0"/><rect width="19.498999" height="100" rx="0" ry="0" transform="translate(125.195896 26.276133)" fill="#e63ee1" stroke-width="0"/><ellipse rx="39.956906" ry="39.741226" transform="matrix(1.089087 0 0 1.087872 154.444394 76.276134)" filter="url(#e0aj2PHcnGk20-filter)" fill="#555" stroke-width="0"/><ellipse rx="39.956906" ry="39.741226" transform="matrix(.927601 0 0 0.925503 154.444394 76.276134)" filter="url(#e0aj2PHcnGk21-filter)" fill="#979797" stroke-width="0"/><path d="M48.934977,127.386572h211.432314" fill="none" stroke="#293a5d" stroke-width="0.6"/><ellipse rx="5.258968" ry="5.162177" transform="translate(74.726257 117.308025)" fill="#b32929" stroke="#293a5d"/><path d="M125.195895,25.036116l61.73123.480852" transform="translate(.000001 0)" fill="none" stroke="#293a5d" stroke-width="0.6"/><path id="e0aj2PHcnGk25" d="M69.521478,27.756871q0-.070805,0-12.594296h23.609835v10.968627q-23.609835,1.696474-23.609835,1.625669Z" transform="translate(.826123 0.104388)" fill="#293a5d" stroke="#293a5d" stroke-width="0.6"/><rect id="e0aj2PHcnGk26" width="36.079758" height="14.634392" rx="2" ry="2" transform="translate(213.372463 37.310946)" fill="#d2dbed" stroke="#293a5d"/></g><ellipse id="e0aj2PHcnGk27" rx="82.726478" ry="85.225879" transform="matrix(1.595868 0 0 1.481191 231.412342 44.628142)" opacity="0" fill="url(#e0aj2PHcnGk27-fill)" stroke-width="0"/><path d="M117.380328,127.516151l74.128132-.129579" fill="none" stroke="#303f5b" stroke-width="2"/>
</svg>
